<svg width="9" height="12" viewBox="0 0 9 12" fill="none" xmlns="http://www.w3.org/2000/svg">
<path d="M1.59277 11.3662H3.15283C3.6582 11.3662 3.87061 11.1465 3.87061 10.6411V0.782715C3.87061 0.27002 3.6582 0.0576172 3.15283 0.0576172H1.59277C1.0874 0.0576172 0.867676 0.277344 0.867676 0.782715V10.6411C0.867676 11.1465 1.0874 11.3662 1.59277 11.3662ZM6.35352 11.3662H7.9209C8.41895 11.3662 8.63867 11.1465 8.63867 10.6411V0.782715C8.63867 0.27002 8.41895 0.0576172 7.9209 0.0576172H6.35352C5.85547 0.0576172 5.63574 0.277344 5.63574 0.782715V10.6411C5.63574 11.1465 5.85547 11.3662 6.35352 11.3662Z" fill="white"/>
</svg>
