<svg width="15" height="15" viewBox="0 0 15 15" fill="none" xmlns="http://www.w3.org/2000/svg">
<path d="M10.9897 8.82129V0.896484C10.9897 0.405762 10.6235 0.00292969 10.1108 0.00292969C9.75195 0.00292969 9.51758 0.171387 9.12207 0.522949L5.73828 3.5332L6.55859 4.35352L9.57617 1.60693C9.61279 1.57764 9.65674 1.54834 9.70801 1.54834C9.7666 1.54834 9.81055 1.59229 9.81055 1.65088V7.64209L10.9897 8.82129ZM13.1943 13.9482C13.4214 14.168 13.7803 14.168 13.9927 13.9482C14.2124 13.7212 14.2197 13.3696 13.9927 13.1499L1.45361 0.61084C1.23389 0.391113 0.867676 0.391113 0.647949 0.61084C0.435547 0.823242 0.435547 1.19678 0.647949 1.40918L13.1943 13.9482ZM3.32129 9.81006H5.50391C5.57715 9.81006 5.63574 9.83203 5.68701 9.8833L9.12207 12.9595C9.48096 13.2817 9.7666 13.4355 10.1255 13.4355C10.4551 13.4355 10.7334 13.2671 10.9019 12.9375L10.0303 12.1099L6.29492 8.86523C6.13379 8.72607 6.0459 8.7041 5.84082 8.7041H3.37256C3.08691 8.7041 2.95508 8.57227 2.95508 8.2793V5.07861L2.07617 4.14111C1.87109 4.43408 1.77588 4.81494 1.77588 5.29102V8.18408C1.77588 9.29004 2.28857 9.81006 3.32129 9.81006Z" fill="white"/>
</svg>
