<svg width="22" height="16" viewBox="0 0 22 16" fill="none" xmlns="http://www.w3.org/2000/svg">
<path d="M18.5044 14.9043C18.7754 15.0874 19.1343 15.0142 19.3467 14.7139C20.7017 12.8022 21.4707 10.3267 21.4707 7.71191C21.4707 5.09717 20.6797 2.62891 19.3467 0.709961C19.1343 0.402344 18.7754 0.329102 18.5044 0.519531C18.2261 0.717285 18.1821 1.07617 18.3945 1.38379C19.5737 3.11963 20.3062 5.34619 20.3062 7.71191C20.3062 10.0776 19.603 12.3408 18.3945 14.04C18.1821 14.3477 18.2261 14.7065 18.5044 14.9043ZM1.88574 10.8101H4.06104C4.13428 10.8101 4.2002 10.832 4.24414 10.876L7.68652 13.9595C8.04541 14.2817 8.33105 14.4355 8.68994 14.4355C9.18799 14.4355 9.54688 14.0693 9.54688 13.5786V1.89648C9.54688 1.40576 9.18799 1.00293 8.67529 1.00293C8.31641 1.00293 8.08203 1.17139 7.68652 1.52295L4.24414 4.57715C4.2002 4.62109 4.13428 4.64307 4.06104 4.64307H1.88574C0.845703 4.64307 0.333008 5.16309 0.333008 6.26904V9.18408C0.333008 10.29 0.845703 10.8101 1.88574 10.8101ZM15.5527 12.9048C15.8384 13.0952 16.1899 13.022 16.395 12.729C17.3618 11.3813 17.9258 9.58691 17.9258 7.71191C17.9258 5.82959 17.3765 4.02783 16.395 2.6875C16.1826 2.40186 15.8384 2.32861 15.5527 2.51904C15.2744 2.70947 15.2305 3.06836 15.4502 3.3833C16.2485 4.55518 16.7466 6.09326 16.7466 7.71191C16.7466 9.33057 16.2559 10.8833 15.4502 12.0405C15.2378 12.3555 15.2744 12.7144 15.5527 12.9048ZM1.93701 9.7041C1.65137 9.7041 1.51221 9.57227 1.51221 9.2793V6.17383C1.51221 5.88818 1.65137 5.74902 1.93701 5.74902H4.37598C4.57373 5.74902 4.71289 5.71973 4.896 5.55127L8.14062 2.60693C8.17725 2.57764 8.22119 2.54834 8.26514 2.54834C8.32373 2.54834 8.36768 2.59229 8.36768 2.65088V12.7803C8.36768 12.8462 8.33105 12.8901 8.26514 12.8901C8.22852 12.8901 8.18457 12.8682 8.14062 12.8242L4.896 9.90186C4.71289 9.74072 4.57373 9.7041 4.37598 9.7041H1.93701ZM12.6304 10.9272C12.8794 11.103 13.2383 11.0518 13.4507 10.7588C14.022 9.98975 14.3662 8.86182 14.3662 7.71191C14.3662 6.56201 14.022 5.44141 13.4507 4.66504C13.2383 4.37207 12.8867 4.3208 12.6304 4.48926C12.3154 4.70898 12.2715 5.08252 12.5059 5.39746C12.9307 5.96875 13.187 6.84033 13.187 7.71191C13.187 8.5835 12.916 9.45508 12.4985 10.0337C12.2788 10.3486 12.3154 10.7075 12.6304 10.9272Z" fill="white"/>
</svg>
