<?xml version="1.0" encoding="utf-8"?>
<!-- Generator: Adobe Illustrator 25.0.1, SVG Export Plug-In . SVG Version: 6.00 Build 0)  -->
<svg version="1.1" id="Layer_1" xmlns="http://www.w3.org/2000/svg" xmlns:xlink="http://www.w3.org/1999/xlink" x="0px" y="0px"
	 viewBox="0 0 511 511" style="enable-background:new 0 0 511 511;" xml:space="preserve">
<style type="text/css">
	.st0{fill:#FFFFFF;stroke:#000000;stroke-miterlimit:10;}
</style>
<path d="M510.5,150.2c-1.2-27.2-5.6-45.8-11.9-62c-6.5-17.2-16.5-32.5-29.5-45.3c-12.8-13-28.3-23.1-45.2-29.4
	c-16.3-6.3-34.8-10.7-62-11.9C334.5,0.3,325.8,0,256.4,0s-78.1,0.3-105.3,1.5c-27.2,1.2-45.8,5.6-62,11.9
	C72,19.9,56.6,29.8,43.8,42.9c-13,12.8-23.1,28.3-29.4,45.2c-6.3,16.3-10.7,34.8-11.9,62c-1.3,27.4-1.6,36-1.6,105.4
	s0.3,78.1,1.5,105.3c1.2,27.2,5.6,45.8,11.9,62c6.5,17.2,16.6,32.5,29.5,45.3c12.8,13,28.3,23.1,45.2,29.4
	c16.3,6.3,34.8,10.7,62,11.9c27.2,1.2,35.9,1.5,105.3,1.5s78.1-0.3,105.3-1.5c27.2-1.2,45.8-5.6,62-11.9
	c34.3-13.3,61.5-40.4,74.8-74.8c6.3-16.3,10.7-34.8,11.9-62c1.2-27.3,1.5-35.9,1.5-105.3S511.7,177.5,510.5,150.2z"/>
<path class="st0" d="M256.4,124.3c-72.5,0-131.3,58.8-131.3,131.3S184,386.8,256.4,386.8c72.5,0,131.3-58.8,131.3-131.3
	S328.9,124.3,256.4,124.3z M256.4,340.7c-47,0-85.2-38.1-85.2-85.2s38.1-85.2,85.2-85.2c47,0,85.2,38.1,85.2,85.2
	S303.5,340.7,256.4,340.7z"/>
<path class="st0" d="M423.6,119.1c0,16.9-13.7,30.6-30.6,30.6c-16.9,0-30.6-13.7-30.6-30.6c0-16.9,13.7-30.6,30.6-30.6
	C409.8,88.4,423.6,102.2,423.6,119.1z"/>
</svg>
