<svg width="200" height="40" viewBox="0 0 200 40" fill="none" xmlns="http://www.w3.org/2000/svg">
<path d="M116.418 10.0795V17.4452H131.188C136.809 17.4452 141.384 12.9095 141.384 7.36577V0H126.614C120.992 0 116.418 4.53576 116.418 10.0795ZM140.764 4.14809V5.93138C140.764 10.0019 137.391 13.3359 133.243 13.3359H116.999V11.5526C116.999 7.48207 120.372 4.14809 124.52 4.14809H140.764V4.14809Z" fill="black"/>
<path d="M145.61 10.0795V17.4452H146.23V11.5526C146.23 7.48207 149.603 4.14809 153.751 4.14809H169.994V17.4452H170.614V0H155.844C150.184 0 145.61 4.53576 145.61 10.0795Z" fill="black"/>
<path d="M100.019 6.62919V0H97.422C91.8007 0 87.2262 4.53576 87.2262 10.0795V17.4452H87.8465V11.5526C87.8465 7.48207 91.2192 4.14809 95.3673 4.14809H99.4379V17.4452H100.058V11.5526C100.058 7.48207 103.431 4.14809 107.579 4.14809H111.65V17.4452H112.27V0H109.672C105.292 0 101.454 2.7137 100.019 6.62919Z" fill="black"/>
<path d="M198.992 0L190.308 6.70673C189.998 6.66796 189.649 6.66796 189.339 6.66796H175.15V0H174.53V17.4452H175.15V10.8161H191.394C195.425 10.8161 198.721 13.2972 198.914 17.2514V17.484H199.496V16.7087C199.496 11.9015 195.929 7.71468 191.122 6.8618L200 0H198.992Z" fill="black"/>
<path d="M29.1141 10.0795V17.4452H29.7344V11.2037H53.4987V17.4452H54.119V0H39.3487C33.6887 0 29.1141 4.53576 29.1141 10.0795ZM53.4987 4.14809V10.5834H29.7344C29.9282 6.70673 33.2622 4.14809 37.2165 4.14809H53.4987Z" fill="black"/>
<path d="M12.7932 6.62919V0H10.1958C4.57453 0 0 4.53576 0 10.0795V17.4452H0.620275V11.5526C0.620275 7.48207 3.99302 4.14809 8.14111 4.14809H12.2117V17.4452H12.7932V11.5526C12.7932 7.48207 16.1659 4.14809 20.314 4.14809H24.3846V17.4452H25.0048V0H22.4074C18.0655 0 14.2276 2.7137 12.7932 6.62919Z" fill="black"/>
<path d="M82.419 5.73755C80.6745 2.28727 76.9916 0 73.2699 0H58.2283V17.4452H73.2699C77.0691 17.4452 80.752 15.0804 82.4965 11.5914L82.5353 11.5526C83.0005 10.6998 83.2331 9.73057 83.2331 8.76139C83.2331 7.67591 82.9618 6.62919 82.419 5.73755ZM82.5353 9.07153C82.3415 11.4363 79.7828 13.2972 77.3793 13.2972H75.4797H58.9261H58.8485V8.72262V4.14809H75.3634H77.3405C79.7828 4.14809 82.3415 6.04769 82.4965 8.41249C82.4965 8.52879 82.4965 8.60632 82.4965 8.72262C82.5353 8.83892 82.5353 8.95523 82.5353 9.07153Z" fill="black"/>
<path d="M145.571 31.886V39.2518H160.341C165.963 39.2518 170.537 34.716 170.537 29.1723V21.8065H155.767C150.145 21.8065 145.571 26.3423 145.571 31.886ZM169.956 25.9546V27.7379C169.956 31.8085 166.583 35.1425 162.435 35.1425H146.191V33.3592C146.191 29.2886 149.564 25.9546 153.712 25.9546H169.956V25.9546Z" fill="black"/>
<path d="M82.5742 27.6992C82.5742 31.7697 79.2014 35.1037 75.0533 35.1037H58.8099V21.8065H58.1896V39.2518H72.9599C78.5811 39.2518 83.1557 34.716 83.1557 29.1723V21.8065H82.5354V27.6992H82.5742Z" fill="black"/>
<path d="M0 31.4596V31.886C0 31.9248 0 31.9636 0 32.0023V32.1186C0 32.5838 0.116302 32.9327 0.387672 33.1653C0.814111 33.553 1.5119 33.5142 2.59738 33.1266C2.79122 33.049 3.10136 32.9327 3.45026 32.8164C15.1192 28.4745 21.981 26.9626 23.9193 28.2807C24.1519 28.4357 24.307 28.6683 24.3458 28.9397C24.3458 28.9785 24.3458 29.0173 24.3458 29.056C24.3458 29.1336 24.3458 29.2499 24.3458 29.2886C23.8418 32.9327 20.6241 35.1037 16.8637 35.1037H0V39.2518H14.7703C20.3915 39.2518 24.966 34.716 24.966 29.1336C24.966 28.5908 24.7335 28.1256 24.2295 27.7767C22.8726 26.8463 19.4611 27.1177 14.15 28.5908C9.88563 29.7926 5.38863 31.4596 3.21767 32.2349L3.02384 32.3125C2.75247 32.4288 2.55862 32.5063 2.36479 32.5451C1.55068 32.8552 0.969165 32.894 0.736562 32.7001C0.620261 32.6226 0.581508 32.4675 0.581508 32.2349C0.581508 32.1186 0.581508 32.0023 0.581508 31.886C1.08548 28.2419 4.38068 25.9546 8.10233 25.9546H24.966V21.8065H10.1958C4.69082 21.8065 0.232603 26.0709 0 31.4596Z" fill="black"/>
<path d="M174.724 31.4596V31.886C174.724 31.9248 174.724 31.9636 174.724 32.0023V32.1186C174.724 32.5838 174.84 32.9327 175.112 33.1653C175.538 33.553 176.236 33.5142 177.321 33.1266C177.515 33.049 177.825 32.9327 178.174 32.8164C189.843 28.4745 196.705 26.9626 198.643 28.2807C198.876 28.4357 199.031 28.6683 199.07 28.9397C199.07 28.9785 199.07 29.0173 199.07 29.056C199.07 29.1336 199.07 29.2499 199.07 29.2886C198.566 32.9327 195.348 35.1037 191.588 35.1037H174.724V39.2518H189.494C195.115 39.2518 199.69 34.716 199.69 29.1336C199.69 28.5908 199.457 28.1256 198.953 27.7767C197.597 26.8463 194.185 27.1177 188.874 28.5908C184.61 29.7926 180.113 31.4596 177.942 32.2349L177.748 32.3125C177.476 32.4288 177.283 32.5063 177.089 32.5451C176.275 32.8552 175.693 32.894 175.46 32.7001C175.344 32.6226 175.305 32.4675 175.305 32.2349C175.305 32.1186 175.305 32.0023 175.305 31.886C175.809 28.2419 179.105 25.9546 182.826 25.9546H199.69V21.8065H184.92C179.415 21.8065 174.956 26.0709 174.724 31.4596Z" fill="black"/>
<path d="M29.1141 25.9546H41.287V39.2518H41.9073V25.9546H54.0802V21.8065H29.1141V25.9546Z" fill="black"/>
<path d="M116.457 25.9546H128.63V35.1425H116.457V39.2518H141.423V35.1425H129.25V25.9546H141.423V21.8065H116.457V25.9546Z" fill="black"/>
<path d="M111.533 27.5441C109.75 24.0938 106.067 21.8065 102.346 21.8065H87.3039V39.2518H102.346C106.145 39.2518 109.828 36.887 111.572 33.3979L111.611 33.3592C112.076 32.5063 112.309 31.5371 112.309 30.5679C112.309 29.4825 112.037 28.4357 111.533 27.5441ZM111.611 30.8781C111.417 33.2429 108.858 35.1037 106.455 35.1037H104.555H88.0405H87.9629V30.5292V25.9546H104.478H106.455C108.897 25.9546 111.456 27.8542 111.611 30.219C111.611 30.3353 111.611 30.4129 111.611 30.5292C111.65 30.6455 111.611 30.7618 111.611 30.8781Z" fill="black"/>
</svg>
