<?xml version="1.0" encoding="utf-8"?>
<!-- Generator: Adobe Illustrator 25.0.0, SVG Export Plug-In . SVG Version: 6.00 Build 0)  -->
<svg version="1.1" id="Layer_1" xmlns="http://www.w3.org/2000/svg" xmlns:xlink="http://www.w3.org/1999/xlink" x="0px" y="0px"
	 viewBox="0 0 659.5 319.1" style="enable-background:new 0 0 659.5 319.1;" xml:space="preserve">
<g>
	<path d="M595.1,0c-44.9,0-94.8,52.4-121.2,122.7c-3.7,9.7-13.7,17-23.6,17h-4.1c-9.8,0-16.5-7.2-15.6-17
		C437.4,52.4,412.2,0,367.3,0c-44.8,0-94.7,52.4-121.2,122.7c-3.7,9.7-13.7,17-23.6,17h-4.1c-9.8,0-16.5-7.2-15.6-17
		C209.7,52.4,184.5,0,139.6,0C87.3,0,28,71.4,7.2,159.5c-20.8,88.1,4.8,159.6,57.2,159.6c48.6,0,103.1-61.4,127.3-140.6
		c3.2-10.3,13.7-18.2,24-18.2c9.3,0,15.7,6.4,15.7,15.1c0,1-0.1,2-0.3,3.1c-13.1,79.2,12.5,140.6,61,140.6s103-61.4,127.3-140.6
		c3.2-10.3,13.7-18.2,24-18.2c9.3,0,15.7,6.4,15.7,15.1c0,1-0.1,2-0.3,3.1c-13.1,79.2,12.4,140.6,61,140.6
		c52.4,0,111.7-71.4,132.5-159.6C673.1,71.4,647.5,0,595.1,0z M152.4,116.1l-18.9,80c-0.5,2.2-2.7,4-4.9,4h-3.5c-2.2,0-3.5-1.8-3-4
		l11.3-48c1-4.5-4.9-5.5-7.4-1.3l-29.8,50.7c-0.9,1.6-2.7,2.6-4.4,2.6h-8.9c-1.7,0-2.9-1.1-3.1-2.6l-6.3-51c-0.5-4.2-7-3.1-8,1.3
		l-11.4,48.3c-0.6,2.2-2.7,4-4.9,4h-3.5c-2.2,0-3.6-1.8-3-4l18.8-80c0.6-2.2,2.7-3.9,4.9-3.9h11.6c1.7,0,2.9,1,3.1,2.6l7.8,62.3
		c0.5,3.5,5.4,3.5,7.5,0l36.7-62.3c0.9-1.6,2.7-2.6,4.4-2.6h11.8C151.6,112.1,152.9,113.9,152.4,116.1z M387.8,116.1l-18.9,80
		c-0.5,2.2-2.7,4-4.9,4h-3.5c-2.2,0-3.5-1.8-3-4l11.3-48c1.1-4.5-4.9-5.5-7.4-1.3l-29.8,50.7c-0.9,1.6-2.7,2.6-4.4,2.6h-8.9
		c-1.7,0-2.9-1.1-3.1-2.6l-6.2-51c-0.5-4.2-7-3.1-8,1.3l-11.4,48.3c-0.5,2.2-2.7,4-4.9,4h-3.5c-2.2,0-3.5-1.8-3-4l18.9-80
		c0.5-2.2,2.7-3.9,4.9-3.9h11.6c1.7,0,2.9,1,3.1,2.6l7.9,62.3c0.4,3.5,5.4,3.5,7.5,0l36.7-62.3c0.9-1.6,2.7-2.6,4.3-2.6h11.8
		C387,112.1,388.3,113.9,387.8,116.1z M593.5,135.9l-4.7,0.8c-2,0.4-3.7-0.8-3.8-2.7c-0.8-9.9-7.5-14-16.5-14
		c-11.3,0-22.1,4.6-24.7,15.2c-2.1,8.9,7.2,11.1,16.8,13.5l9,2.1c12.7,3,24.9,8.1,21,24.7c-3.7,15.7-20.5,26.7-41.8,26.7
		c-16.5,0-28.7-8.2-28.7-24.9c0-2.2,2-4.5,4.4-4.8l4.5-0.7c2.2-0.4,3.9,1.1,3.8,3.2c-0.5,11.7,8.1,17.1,18.7,17.1
		c14.3,0,24.6-7,26.7-16c2.4-10-5.2-12.4-14-14.4l-8-1.9c-14.5-3.3-28.5-7.1-24.4-24.5c3.6-15.3,19.2-25.3,39.2-25.3
		c18.6,0,26,9.2,27,20.8C598,133.1,595.9,135.5,593.5,135.9z"/>
</g>
</svg>
