<svg width="16" height="13" viewBox="0 0 16 13" fill="none" xmlns="http://www.w3.org/2000/svg">
<path d="M15.5 6.35938C15.5 6.16406 15.4219 5.98438 15.2656 5.83594L10.0859 0.671875C9.91406 0.5 9.75 0.4375 9.5625 0.4375C9.17969 0.4375 8.88281 0.71875 8.88281 1.10938C8.88281 1.29688 8.94531 1.47656 9.07031 1.60156L10.8203 3.38281L13.4453 5.78125L11.5625 5.66406H1.67969C1.27344 5.66406 0.992188 5.95312 0.992188 6.35938C0.992188 6.76562 1.27344 7.05469 1.67969 7.05469H11.5625L13.4531 6.9375L10.8203 9.33594L9.07031 11.1172C8.94531 11.2344 8.88281 11.4219 8.88281 11.6094C8.88281 12 9.17969 12.2812 9.5625 12.2812C9.75 12.2812 9.91406 12.2109 10.0703 12.0625L15.2656 6.88281C15.4219 6.73438 15.5 6.55469 15.5 6.35938Z" fill="black"/>
</svg>
