<svg width="13" height="12" viewBox="0 0 13 12" fill="none" xmlns="http://www.w3.org/2000/svg">
<g clip-path="url(#clip0)">
<path d="M6.05293 0.0197754C2.74943 0.0197754 0.0712891 2.69785 0.0712891 6.00135C0.0712891 9.30499 2.74943 11.9828 6.05293 11.9828C9.35679 11.9828 12.0346 9.30499 12.0346 6.00135C12.0346 2.69806 9.35679 0.0200611 6.05286 0.0200611L6.05293 0.0197754V0.0197754ZM8.79607 8.64692C8.68893 8.82263 8.45893 8.87835 8.28322 8.77049C6.87879 7.91263 5.11079 7.71835 3.02865 8.19406C2.828 8.23978 2.628 8.11406 2.58229 7.91335C2.53636 7.71263 2.66157 7.51263 2.86272 7.46692C5.14129 6.94613 7.09579 7.17049 8.6725 8.13406C8.84822 8.24192 8.90393 8.47121 8.79607 8.64692V8.64692ZM9.52822 7.01799C9.39322 7.23763 9.10607 7.30692 8.88679 7.17192C7.27893 6.18342 4.828 5.8972 2.92622 6.47449C2.67957 6.54899 2.41907 6.40999 2.34422 6.16378C2.26993 5.91713 2.409 5.65713 2.65522 5.58213C4.82757 4.92299 7.52822 5.24228 9.37465 6.37692C9.59393 6.51192 9.66322 6.79906 9.52822 7.01806V7.01799ZM9.59107 5.32199C7.66322 4.17692 4.4825 4.07163 2.64186 4.63028C2.34629 4.71992 2.03372 4.55306 1.94415 4.25749C1.85457 3.96178 2.02129 3.64942 2.31707 3.55956C4.43 2.91813 7.9425 3.04206 10.1621 4.3597C10.4285 4.51749 10.5156 4.86085 10.3578 5.12635C10.2006 5.3922 9.85636 5.47985 9.59136 5.32199H9.59107Z" fill="white"/>
</g>
<defs>
<clipPath id="clip0">
<rect width="12" height="12" fill="white" transform="translate(0.0527344)"/>
</clipPath>
</defs>
</svg>
